<svg width="220" height="220" viewBox="0 0 220 220" fill="none" xmlns="http://www.w3.org/2000/svg">
  <defs>
    <radialGradient id="lb-hydrangea" cx="35%" cy="30%" r="75%">
      <stop offset="0%" stop-color="#A8ACEF"/>
      <stop offset="55%" stop-color="#6E73D8"/>
      <stop offset="100%" stop-color="#42469E"/>
    </radialGradient>
    <linearGradient id="lb-leaf" x1="0" y1="1" x2="1" y2="0">
      <stop offset="0%" stop-color="#5C9468"/>
      <stop offset="55%" stop-color="#396E45"/>
      <stop offset="100%" stop-color="#173D24"/>
    </linearGradient>
    <filter id="lb-shadow" x="-50%" y="-50%" width="200%" height="200%">
      <feDropShadow dx="0" dy="2.5" stdDeviation="3" flood-color="#173D24" flood-opacity="0.26"/>
    </filter>

    <symbol id="lb-bud" viewBox="0 0 20 20">
      <g fill="url(#lb-hydrangea)">
        <path d="M10 10 C7 7 7 3 10 1 C13 3 13 7 10 10Z"/>
        <path d="M10 10 C13 7 17 7 19 10 C17 13 13 13 10 10Z"/>
        <path d="M10 10 C13 13 13 17 10 19 C7 17 7 13 10 10Z"/>
        <path d="M10 10 C7 13 3 13 1 10 C3 7 7 7 10 10Z"/>
      </g>
      <circle cx="10" cy="10" r="1.6" fill="#FFF5D8"/>
    </symbol>

    <symbol id="lb-f-hydrangea" viewBox="0 0 56 56">
      <g filter="url(#lb-shadow)">
        <use href="#lb-bud" width="22" height="22" transform="translate(17,2)"/>
        <use href="#lb-bud" width="22" height="22" transform="translate(2,17)"/>
        <use href="#lb-bud" width="22" height="22" transform="translate(32,17)"/>
        <use href="#lb-bud" width="22" height="22" transform="translate(17,32)"/>
        <use href="#lb-bud" width="20" height="20" transform="translate(18,19)"/>
      </g>
    </symbol>

    <symbol id="lb-f-leaf" viewBox="0 0 40 16">
      <path d="M2 8 C10 -3 30 -3 38 8 C30 19 10 19 2 8Z" fill="url(#lb-leaf)"/>
      <path d="M4 8 C14 8 26 8 36 8" stroke="#173D24" stroke-width="0.6" opacity="0.55"/>
    </symbol>

    <symbol id="lb-f-berry" viewBox="0 0 10 10">
      <circle cx="5" cy="5" r="4" fill="#D8AF47"/>
      <circle cx="3.4" cy="3.4" r="1.3" fill="#FFF0C4" opacity="0.85"/>
    </symbol>
  </defs>

  <g stroke="#1F4A30" stroke-width="1.8" stroke-linecap="round" fill="none" opacity="0.85">
    <path d="M6 214 C46 200 74 172 84 132 C92 100 86 68 62 42"/>
    <path d="M6 214 C26 188 34 158 28 128"/>
  </g>

  <use href="#lb-f-leaf" width="46" height="18" transform="translate(14,168) rotate(-32 23 9)" opacity="0.9"/>
  <use href="#lb-f-leaf" width="40" height="16" transform="translate(38,132) rotate(-58 20 8)" opacity="0.88"/>
  <use href="#lb-f-leaf" width="34" height="14" transform="translate(56,92) rotate(-84 17 7)" opacity="0.85"/>

  <use href="#lb-f-hydrangea" width="58" height="58" transform="translate(38,150)"/>
  <use href="#lb-f-hydrangea" width="40" height="40" transform="translate(58,96)" opacity="0.95"/>
  <use href="#lb-f-hydrangea" width="30" height="30" transform="translate(40,36)" opacity="0.9"/>

  <use href="#lb-f-berry" width="10" height="10" transform="translate(20,120)"/>
  <use href="#lb-f-berry" width="8" height="8" transform="translate(70,70)"/>
</svg>
